<?xml version="1.0" encoding="UTF-8" standalone="no"?>
<svg
   xmlns:dc="http://purl.org/dc/elements/1.1/"
   xmlns:cc="http://creativecommons.org/ns#"
   xmlns:rdf="http://www.w3.org/1999/02/22-rdf-syntax-ns#"
   xmlns:svg="http://www.w3.org/2000/svg"
   xmlns="http://www.w3.org/2000/svg"
   viewBox="0 0 64 65.333336"
   height="65.333336"
   width="64"
   xml:space="preserve"
   id="svg2"
   version="1.1"><metadata
     id="metadata8"><rdf:RDF><cc:Work
         rdf:about=""><dc:format>image/svg+xml</dc:format><dc:type
           rdf:resource="http://purl.org/dc/dcmitype/StillImage" /></cc:Work></rdf:RDF></metadata><defs
     id="defs6" /><g
     transform="matrix(1.3333333,0,0,-1.3333333,0,65.333333)"
     id="g10"><g
       transform="scale(0.1)"
       id="g12"><path
         id="path14"
         style="fill:#231f20;fill-opacity:1;fill-rule:nonzero;stroke:none"
         d="m 238.09,484.516 c 131.41,0 237.937,-106.524 237.937,-237.934 C 476.027,115.172 369.5,8.64453 238.09,8.64453 106.68,8.64453 0.15625,115.172 0.15625,246.582 0.15625,377.992 106.68,484.516 238.09,484.516 Z m 0,-20 c -120.363,0 -217.9337,-97.571 -217.9337,-217.934 0,-120.367 97.5707,-217.9375 217.9337,-217.9375 120.367,0 217.937,97.5705 217.937,217.9375 0,120.363 -97.57,217.934 -217.937,217.934" /><path
         id="path16"
         style="fill:#231f20;fill-opacity:1;fill-rule:nonzero;stroke:none"
         d="M 389.453,397.684 V 94.9609 H 86.7266 V 397.684 Z m -17.5,-17.5 H 104.227 V 112.461 h 267.726 v 267.723" /><path
         id="path18"
         style="fill:#231f20;fill-opacity:1;fill-rule:nonzero;stroke:none"
         d="M 370.156,246.32 237.508,113.672 104.863,246.316 237.508,378.965 Z m -24.75,0 L 237.508,354.215 129.613,246.316 237.508,138.422 345.406,246.32" /><path
         id="path20"
         style="fill:#231f20;fill-opacity:1;fill-rule:nonzero;stroke:none"
         d="M 288.125,296.82 V 195.238 H 186.547 V 296.82 Z m -17.5,-17.5 h -66.578 v -66.582 h 66.578 v 66.582" /></g></g></svg>