<?xml version="1.0" encoding="UTF-8" standalone="no"?>
<svg
   xmlns:dc="http://purl.org/dc/elements/1.1/"
   xmlns:cc="http://creativecommons.org/ns#"
   xmlns:rdf="http://www.w3.org/1999/02/22-rdf-syntax-ns#"
   xmlns:svg="http://www.w3.org/2000/svg"
   xmlns="http://www.w3.org/2000/svg"
   viewBox="0 0 89.333336 89.333336"
   height="89.333336"
   width="89.333336"
   xml:space="preserve"
   id="svg2"
   version="1.1"><metadata
     id="metadata8"><rdf:RDF><cc:Work
         rdf:about=""><dc:format>image/svg+xml</dc:format><dc:type
           rdf:resource="http://purl.org/dc/dcmitype/StillImage" /></cc:Work></rdf:RDF></metadata><defs
     id="defs6" /><g
     transform="matrix(1.3333333,0,0,-1.3333333,0,89.333333)"
     id="g10"><g
       transform="scale(0.1)"
       id="g12"><path
         id="path14"
         style="fill:#231f20;fill-opacity:1;fill-rule:nonzero;stroke:none"
         d="m 338.09,668.41 c 183.265,0 331.832,-148.562 331.832,-331.828 C 669.922,153.313 521.355,4.75 338.09,4.75 154.824,4.75 6.26172,153.313 6.26172,336.582 6.26172,519.848 154.824,668.41 338.09,668.41 Z m 0,-27.89 C 170.227,640.52 34.1523,504.441 34.1523,336.582 34.1523,168.719 170.227,32.6406 338.09,32.6406 c 167.863,0 303.937,136.0784 303.937,303.9414 0,167.859 -136.074,303.938 -303.937,303.938" /><path
         id="path16"
         style="fill:#231f20;fill-opacity:1;fill-rule:nonzero;stroke:none"
         d="M 549.184,547.309 V 125.125 H 126.996 V 547.309 Z M 524.777,522.902 H 151.402 V 149.531 h 373.375 v 373.371" /><path
         id="path18"
         style="fill:#231f20;fill-opacity:1;fill-rule:nonzero;stroke:none"
         d="M 522.27,336.219 337.277,151.227 152.289,336.211 337.277,521.203 Z m -34.516,0 L 337.277,486.691 186.805,336.211 337.277,185.738 487.754,336.219" /><path
         id="path20"
         style="fill:#231f20;fill-opacity:1;fill-rule:nonzero;stroke:none"
         d="M 407.871,406.645 V 264.98 H 266.203 v 141.665 z m -24.41,-24.407 h -92.852 v -92.855 h 92.852 v 92.855" /></g></g></svg>