<?xml version="1.0" standalone="no"?>
<!DOCTYPE svg PUBLIC "-//W3C//DTD SVG 20010904//EN"
 "http://www.w3.org/TR/2001/REC-SVG-20010904/DTD/svg10.dtd">
<svg version="1.0" xmlns="http://www.w3.org/2000/svg"
 width="809.000000pt" height="809.000000pt" viewBox="0 0 809.000000 809.000000"
 preserveAspectRatio="xMidYMid meet">
<metadata>
Created by potrace 1.14, written by Peter Selinger 2001-2017
</metadata>
<g transform="translate(0.000000,809.000000) scale(0.100000,-0.100000)"
fill="#000000" stroke="none">
<path d="M3745 7994 c-634 -61 -1142 -218 -1670 -517 -516 -292 -1004 -752
-1339 -1262 -334 -508 -531 -1044 -623 -1695 -25 -181 -25 -779 0 -960 99
-697 326 -1284 701 -1810 712 -1000 1841 -1618 3048 -1668 1036 -43 1987 283
2773 952 125 107 346 330 451 456 646 774 966 1723 922 2736 -51 1212 -667
2338 -1668 3050 -449 320 -1024 564 -1554 660 -259 47 -357 56 -681 59 -176 1
-338 1 -360 -1z m745 -349 c278 -38 483 -85 720 -164 1174 -394 2077 -1377
2368 -2581 74 -302 97 -509 97 -860 0 -443 -47 -744 -180 -1145 -359 -1087
-1213 -1941 -2300 -2300 -401 -133 -702 -180 -1145 -180 -351 0 -558 23 -860
97 -1402 340 -2484 1502 -2719 2918 -40 244 -45 312 -46 610 0 298 5 361 46
610 160 971 722 1840 1557 2404 486 329 1044 533 1627 595 169 19 182 19 455
16 168 -3 307 -10 380 -20z"/>
<path d="M1530 4035 l0 -2525 2520 0 2520 0 0 2525 0 2525 -2520 0 -2520 0 0
-2525z m4750 0 l0 -2235 -2230 0 -2230 0 0 2235 0 2235 2230 0 2230 0 0 -2235z"/>
<path d="M2932 5137 l-1102 -1102 1105 -1105 1105 -1105 1105 1105 1105 1105
-1102 1102 c-607 607 -1105 1103 -1108 1103 -3 0 -501 -496 -1108 -1103z
m2011 -205 l897 -897 -900 -900 -900 -900 -900 900 -900 900 897 897 c494 494
900 898 903 898 3 0 409 -404 903 -898z"/>
<path d="M3190 4030 l0 -850 845 0 845 0 0 850 0 850 -845 0 -845 0 0 -850z
m1400 5 l0 -555 -555 0 -555 0 0 555 0 555 555 0 555 0 0 -555z"/>
</g>
</svg>
